<svg xmlns="http://www.w3.org/2000/svg" viewBox="0 0 220 280" fill="none" aria-hidden="true">
  <ellipse cx="110" cy="256" rx="88" ry="22" fill="#4A3B3F"/>
  <path d="M88 116 C80 116 70 76 72 44 C73 26 86 20 96 30 C103 38 104 74 102 116 C100 124 92 124 88 116Z" fill="#FBF3EC" stroke="#E8A79C" stroke-width="7" stroke-linejoin="round"/>
  <path d="M132 116 C140 116 150 76 148 44 C147 26 134 20 124 30 C117 38 116 74 118 116 C120 124 128 124 132 116Z" fill="#FBF3EC" stroke="#E8A79C" stroke-width="7" stroke-linejoin="round"/>
  <path d="M76 142 C76 118 90 106 110 106 C130 106 144 118 144 142 C144 168 130 186 110 186 C90 186 76 168 76 142Z" fill="#FBF3EC" stroke="#E8A79C" stroke-width="7" stroke-linejoin="round"/>
  <path d="M96 140 C99 135 105 135 108 140" stroke="#E8A79C" stroke-width="4.2" stroke-linecap="round"/>
  <path d="M112 140 C115 135 121 135 124 140" stroke="#E8A79C" stroke-width="4.2" stroke-linecap="round"/>
  <circle cx="110" cy="154" r="3.6" fill="#E8A79C"/>
  <path d="M52 248 C46 248 44 238 52 234 C60 230 70 238 68 246 C66 254 58 254 52 248Z" fill="#FBF3EC" stroke="#E8A79C" stroke-width="6" stroke-linejoin="round"/>
  <path d="M144 176 C158 166 174 176 170 196 C167 210 156 214 146 206" fill="#FBF3EC" stroke="#E8A79C" stroke-width="7" stroke-linejoin="round"/>
  <path d="M166 168 C166 154 174 144 184 146 C194 148 198 160 192 172 C188 180 178 182 170 176" fill="#FBF3EC" stroke="#E8A79C" stroke-width="6.5" stroke-linejoin="round"/>
</svg>
